<?xml version="1.0" encoding="UTF-8" standalone="yes"?><svg xmlns="http://www.w3.org/2000/svg" xmlns:xlink="http://www.w3.org/1999/xlink" height="317pt" style="width:781px;height:317px;" version="1.1" viewBox="0 0 781 317" width="781pt"><defs><filter height="300%" id="f1" width="300%" x="-1" y="-1"><feGaussianBlur result="blurOut" stdDeviation="2"/><feColorMatrix in="blurOut" result="blurOut2" type="matrix" values="0 0 0 0 0 0 0 0 0 0 0 0 0 0 0 0 0 0 .4 0"/><feOffset dx="4" dy="4" in="blurOut2" result="blurOut3"/><feBlend in="SourceGraphic" in2="blurOut3" mode="normal"/></filter></defs><g><rect fill="#FEFECE" filter="url(#f1)" height="118" rx="12.5" ry="12.5" style="stroke: #A80036; stroke-width: 1.5;" width="572" x="30" y="84"/><rect fill="#FFFFFF" height="85.7031" rx="12.5" ry="12.5" style="stroke: #FFFFFF; stroke-width: 1.0;" width="566" x="33" y="113.2969"/><line style="stroke: #A80036; stroke-width: 1.5;" x1="30" x2="602" y1="110.2969" y2="110.2969"/><text fill="#000000" font-size="14" lengthAdjust="spacingAndGlyphs" textLength="54" x="288.5" y="102">Initialize</text><ellipse cx="83" cy="153" fill="#000000" filter="url(#f1)" rx="10" ry="10" style="stroke: none; stroke-width: 1.0;"/><rect fill="#FEFECE" filter="url(#f1)" height="50" rx="12.5" ry="12.5" style="stroke: #A80036; stroke-width: 1.5;" width="130" x="163" y="128"/><line style="stroke: #A80036; stroke-width: 1.5;" x1="163" x2="293" y1="154.2969" y2="154.2969"/><text fill="#000000" font-size="14" lengthAdjust="spacingAndGlyphs" textLength="110" x="173" y="147">PerformSelfTest</text><rect fill="#FEFECE" filter="url(#f1)" height="50" rx="12.5" ry="12.5" style="stroke: #A80036; stroke-width: 1.5;" width="152" x="426" y="128"/><line style="stroke: #A80036; stroke-width: 1.5;" x1="426" x2="578" y1="154.2969" y2="154.2969"/><text fill="#000000" font-size="14" lengthAdjust="spacingAndGlyphs" textLength="132" x="436" y="147">SampleSensorData</text><ellipse cx="38" cy="18" fill="#000000" filter="url(#f1)" rx="10" ry="10" style="stroke: none; stroke-width: 1.0;"/><rect fill="#FEFECE" filter="url(#f1)" height="50" rx="12.5" ry="12.5" style="stroke: #A80036; stroke-width: 1.5;" width="50" x="477" y="258"/><line style="stroke: #A80036; stroke-width: 1.5;" x1="477" x2="527" y1="284.2969" y2="284.2969"/><text fill="#000000" font-size="14" lengthAdjust="spacingAndGlyphs" textLength="24" x="490" y="277">Idle</text><rect fill="#FEFECE" filter="url(#f1)" height="50" rx="12.5" ry="12.5" style="stroke: #A80036; stroke-width: 1.5;" width="59" x="713.75" y="258"/><line style="stroke: #A80036; stroke-width: 1.5;" x1="713.75" x2="772.75" y1="284.2969" y2="284.2969"/><text fill="#000000" font-size="14" lengthAdjust="spacingAndGlyphs" textLength="39" x="723.75" y="277">Flying</text><path d="M38,28.142 C38,39.183 38,58.834 38,79.276 " fill="none" style="stroke: #A80036; stroke-width: 1.0;"/><polygon fill="#A80036" points="38,84.485,42,75.485,38,79.485,34,75.485,38,84.485" style="stroke: #A80036; stroke-width: 1.0;"/><path d="M93.1953,153 C114.727,153 136.258,153 157.789,153 " fill="none" style="stroke: #A80036; stroke-width: 1.0;"/><polygon fill="#A80036" points="162.967,153,153.967,149,157.967,153,153.967,157,162.967,153" style="stroke: #A80036; stroke-width: 1.0;"/><path d="M293.282,153 C331.305,153 379.593,153 420.143,153 " fill="none" style="stroke: #A80036; stroke-width: 1.0;"/><polygon fill="#A80036" points="425.557,153,416.557,149,420.557,153,416.557,157,425.557,153" style="stroke: #A80036; stroke-width: 1.0;"/><text fill="#000000" font-size="13" lengthAdjust="spacingAndGlyphs" textLength="95" x="311.5" y="146">EvTestsPassed</text><path d="M502,178.076 C502,199.128 502,229.7751 502,252.336 " fill="none" style="stroke: #A80036; stroke-width: 1.0;"/><polygon fill="#A80036" points="502,257.5969,506,248.5969,502,252.5969,498,248.5969,502,257.5969" style="stroke: #A80036; stroke-width: 1.0;"/><path d="M527.336,283 C570.712,283 659.256,283 708.325,283 " fill="none" style="stroke: #A80036; stroke-width: 1.0;"/><polygon fill="#A80036" points="713.528,283,704.528,279,708.528,283,704.528,287,713.528,283" style="stroke: #A80036; stroke-width: 1.0;"/><text fill="#000000" font-size="13" lengthAdjust="spacingAndGlyphs" textLength="149" x="545.25" y="276">EvGroundLockReleased</text></g></svg>