<?xml version="1.0" encoding="UTF-8" standalone="yes"?><svg xmlns="http://www.w3.org/2000/svg" xmlns:xlink="http://www.w3.org/1999/xlink" height="266pt" style="width:487px;height:266px;" version="1.1" viewBox="0 0 487 266" width="487pt"><defs><filter height="300%" id="f1" width="300%" x="-1" y="-1"><feGaussianBlur result="blurOut" stdDeviation="2"/><feColorMatrix in="blurOut" result="blurOut2" type="matrix" values="0 0 0 0 0 0 0 0 0 0 0 0 0 0 0 0 0 0 .4 0"/><feOffset dx="4" dy="4" in="blurOut2" result="blurOut3"/><feBlend in="SourceGraphic" in2="blurOut3" mode="normal"/></filter></defs><g><polygon fill="#FFFFFF" filter="url(#f1)" points="130,24,184,24,191,41.6406,276,41.6406,276,259,130,259,130,24" style="stroke: #000000; stroke-width: 2.0;"/><line style="stroke: #000000; stroke-width: 2.0;" x1="130" x2="191" y1="41.6406" y2="41.6406"/><text fill="#000000" font-family="Courier" font-size="10" font-weight="bold" lengthAdjust="spacingAndGlyphs" textLength="48" x="134" y="36">Main ECU</text><polygon fill="#FFFFFF" filter="url(#f1)" points="22,172,88,172,95,189.6406,102,189.6406,102,259,22,259,22,172" style="stroke: #000000; stroke-width: 2.0;"/><line style="stroke: #000000; stroke-width: 2.0;" x1="22" x2="95" y1="189.6406" y2="189.6406"/><text fill="#000000" font-family="Courier" font-size="10" font-weight="bold" lengthAdjust="spacingAndGlyphs" textLength="60" x="26" y="184">Vision ECU</text><polygon fill="#FFFFFF" filter="url(#f1)" points="304,61,328,61,335,78.6406,480,78.6406,480,222,304,222,304,61" style="stroke: #000000; stroke-width: 2.0;"/><line style="stroke: #000000; stroke-width: 2.0;" x1="304" x2="335" y1="78.6406" y2="78.6406"/><text fill="#000000" font-family="Courier" font-size="10" font-weight="bold" lengthAdjust="spacingAndGlyphs" textLength="18" x="308" y="73">MCU</text><rect fill="#FEFECE" filter="url(#f1)" height="38.6406" style="stroke: #000000; stroke-width: 1.5;" width="78" x="164" y="203.5"/><rect fill="#FEFECE" height="10" style="stroke: #000000; stroke-width: 1.5;" width="15" x="222" y="208.5"/><rect fill="#FEFECE" height="2" style="stroke: #000000; stroke-width: 1.5;" width="4" x="220" y="210.5"/><rect fill="#FEFECE" height="2" style="stroke: #000000; stroke-width: 1.5;" width="4" x="220" y="214.5"/><text fill="#000000" font-family="Courier" font-size="10" lengthAdjust="spacingAndGlyphs" textLength="54" x="174" y="229.5">Sensorhub</text><rect fill="#FEFECE" filter="url(#f1)" height="38.6406" style="stroke: #000000; stroke-width: 1.5;" width="72" x="167" y="129.5"/><rect fill="#FEFECE" height="10" style="stroke: #000000; stroke-width: 1.5;" width="15" x="219" y="134.5"/><rect fill="#FEFECE" height="2" style="stroke: #000000; stroke-width: 1.5;" width="4" x="217" y="136.5"/><rect fill="#FEFECE" height="2" style="stroke: #000000; stroke-width: 1.5;" width="4" x="217" y="140.5"/><text fill="#000000" font-family="Courier" font-size="10" lengthAdjust="spacingAndGlyphs" textLength="48" x="177" y="155.5">Observer</text><rect fill="#FEFECE" filter="url(#f1)" height="38.6406" style="stroke: #000000; stroke-width: 1.5;" width="114" x="146" y="55.5"/><rect fill="#FEFECE" height="10" style="stroke: #000000; stroke-width: 1.5;" width="15" x="240" y="60.5"/><rect fill="#FEFECE" height="2" style="stroke: #000000; stroke-width: 1.5;" width="4" x="238" y="62.5"/><rect fill="#FEFECE" height="2" style="stroke: #000000; stroke-width: 1.5;" width="4" x="238" y="66.5"/><text fill="#000000" font-family="Courier" font-size="10" lengthAdjust="spacingAndGlyphs" textLength="90" x="156" y="81.5">Main Controller</text><rect fill="#FEFECE" filter="url(#f1)" height="38.6406" style="stroke: #000000; stroke-width: 1.5;" width="48" x="38" y="203.5"/><rect fill="#FEFECE" height="10" style="stroke: #000000; stroke-width: 1.5;" width="15" x="66" y="208.5"/><rect fill="#FEFECE" height="2" style="stroke: #000000; stroke-width: 1.5;" width="4" x="64" y="210.5"/><rect fill="#FEFECE" height="2" style="stroke: #000000; stroke-width: 1.5;" width="4" x="64" y="214.5"/><text fill="#000000" font-family="Courier" font-size="10" lengthAdjust="spacingAndGlyphs" textLength="24" x="48" y="229.5">PTAM</text><rect fill="#FEFECE" filter="url(#f1)" height="38.6406" style="stroke: #000000; stroke-width: 1.5;" width="144" x="320" y="92.5"/><rect fill="#FEFECE" height="10" style="stroke: #000000; stroke-width: 1.5;" width="15" x="444" y="97.5"/><rect fill="#FEFECE" height="2" style="stroke: #000000; stroke-width: 1.5;" width="4" x="442" y="99.5"/><rect fill="#FEFECE" height="2" style="stroke: #000000; stroke-width: 1.5;" width="4" x="442" y="103.5"/><text fill="#000000" font-family="Courier" font-size="10" lengthAdjust="spacingAndGlyphs" textLength="120" x="330" y="118.5">Servo/Engine Control</text><rect fill="#FEFECE" filter="url(#f1)" height="38.6406" style="stroke: #000000; stroke-width: 1.5;" width="42" x="371" y="166.5"/><rect fill="#FEFECE" height="10" style="stroke: #000000; stroke-width: 1.5;" width="15" x="393" y="171.5"/><rect fill="#FEFECE" height="2" style="stroke: #000000; stroke-width: 1.5;" width="4" x="391" y="173.5"/><rect fill="#FEFECE" height="2" style="stroke: #000000; stroke-width: 1.5;" width="4" x="391" y="177.5"/><text fill="#000000" font-family="Courier" font-size="10" lengthAdjust="spacingAndGlyphs" textLength="18" x="381" y="192.5">IMU</text><path d="M203,203.6328 C203,193.6982 203,183.7635 203,173.829 " fill="none" style="stroke: #A80036; stroke-width: 1.0;"/><polygon fill="#A80036" points="203,168.634,199,177.634,203,173.634,207,177.634,203,168.634" style="stroke: #A80036; stroke-width: 1.0;"/><path d="M203,129.633 C203,119.698 203,109.764 203,99.829 " fill="none" style="stroke: #A80036; stroke-width: 1.0;"/><polygon fill="#A80036" points="203,94.634,199,103.634,203,99.634,207,103.634,203,94.634" style="stroke: #A80036; stroke-width: 1.0;"/><path d="M86.2655,223 C106.035,223 134.94,223 158.917,223 " fill="none" style="stroke: #A80036; stroke-width: 1.0;"/><polygon fill="#A80036" points="163.953,223,154.953,219,158.953,223,154.953,227,163.953,223" style="stroke: #A80036; stroke-width: 1.0;"/><path d="M260.106,86.101 C277.315,89.506 296.547,93.312 314.859,96.935 " fill="none" style="stroke: #A80036; stroke-width: 1.0;"/><polygon fill="#A80036" points="319.997,97.951,311.9457,92.2785,315.0923,96.9795,310.3913,100.126,319.997,97.951" style="stroke: #A80036; stroke-width: 1.0;"/><path d="M370.909,189.9752 C341.58,195.7782 286.311,206.714 247.428,214.4073 " fill="none" style="stroke: #A80036; stroke-width: 1.0;"/><polygon fill="#A80036" points="242.293,215.4232,251.898,217.6012,247.198,214.4532,250.346,209.7532,242.293,215.4232" style="stroke: #A80036; stroke-width: 1.0;"/></g></svg>