<?xml version="1.0" encoding="UTF-8" standalone="yes"?><svg xmlns="http://www.w3.org/2000/svg" xmlns:xlink="http://www.w3.org/1999/xlink" height="231pt" style="width:454px;height:231px;" version="1.1" viewBox="0 0 454 231" width="454pt"><defs><filter height="300%" id="f1" width="300%" x="-1" y="-1"><feGaussianBlur result="blurOut" stdDeviation="2"/><feColorMatrix in="blurOut" result="blurOut2" type="matrix" values="0 0 0 0 0 0 0 0 0 0 0 0 0 0 0 0 0 0 .4 0"/><feOffset dx="4" dy="4" in="blurOut2" result="blurOut3"/><feBlend in="SourceGraphic" in2="blurOut3" mode="normal"/></filter></defs><g><polygon fill="#FFFFFF" filter="url(#f1)" points="32,24,187,24,194,46.2969,437,46.2969,437,112,32,112,32,24" style="stroke: #000000; stroke-width: 2.0;"/><line style="stroke: #000000; stroke-width: 2.0;" x1="32" x2="194" y1="46.2969" y2="46.2969"/><text fill="#000000" font-size="14" font-weight="bold" lengthAdjust="spacingAndGlyphs" textLength="149" x="36" y="40">Main ECU Software</text><polygon fill="#FFFFFF" filter="url(#f1)" points="22,136,102,136,109,158.2969,447,158.2969,447,224,22,224,22,136" style="stroke: #000000; stroke-width: 2.0;"/><line style="stroke: #000000; stroke-width: 2.0;" x1="22" x2="109" y1="158.2969" y2="158.2969"/><text fill="#000000" font-size="14" font-weight="bold" lengthAdjust="spacingAndGlyphs" textLength="74" x="26" y="152">Simulator</text><rect fill="#FEFECE" filter="url(#f1)" height="36.2969" style="stroke: #A80036; stroke-width: 1.5;" width="96" x="48" y="60"/><rect fill="#FEFECE" height="5" style="stroke: #A80036; stroke-width: 1.5;" width="10" x="43" y="65"/><rect fill="#FEFECE" height="5" style="stroke: #A80036; stroke-width: 1.5;" width="10" x="43" y="86.2969"/><text fill="#000000" font-size="14" lengthAdjust="spacingAndGlyphs" textLength="76" x="58" y="84">Sensorhub</text><rect fill="#FEFECE" filter="url(#f1)" height="36.2969" style="stroke: #A80036; stroke-width: 1.5;" width="83" x="179.75" y="60"/><rect fill="#FEFECE" height="5" style="stroke: #A80036; stroke-width: 1.5;" width="10" x="174.75" y="65"/><rect fill="#FEFECE" height="5" style="stroke: #A80036; stroke-width: 1.5;" width="10" x="174.75" y="86.2969"/><text fill="#000000" font-size="14" lengthAdjust="spacingAndGlyphs" textLength="63" x="189.75" y="84">Observer</text><rect fill="#FEFECE" filter="url(#f1)" height="36.2969" style="stroke: #A80036; stroke-width: 1.5;" width="123" x="297.75" y="60"/><rect fill="#FEFECE" height="5" style="stroke: #A80036; stroke-width: 1.5;" width="10" x="292.75" y="65"/><rect fill="#FEFECE" height="5" style="stroke: #A80036; stroke-width: 1.5;" width="10" x="292.75" y="86.2969"/><text fill="#000000" font-size="14" lengthAdjust="spacingAndGlyphs" textLength="103" x="307.75" y="84">Main Controller</text><rect fill="#FEFECE" filter="url(#f1)" height="36.2969" style="stroke: #A80036; stroke-width: 1.5;" width="162" x="269" y="172"/><rect fill="#FEFECE" height="5" style="stroke: #A80036; stroke-width: 1.5;" width="10" x="264" y="177"/><rect fill="#FEFECE" height="5" style="stroke: #A80036; stroke-width: 1.5;" width="10" x="264" y="198.2969"/><text fill="#000000" font-size="14" lengthAdjust="spacingAndGlyphs" textLength="142" x="279" y="196">Dynamics Simulation</text><rect fill="#FEFECE" filter="url(#f1)" height="36.2969" style="stroke: #A80036; stroke-width: 1.5;" width="196" x="38.5" y="172"/><rect fill="#FEFECE" height="5" style="stroke: #A80036; stroke-width: 1.5;" width="10" x="33.5" y="177"/><rect fill="#FEFECE" height="5" style="stroke: #A80036; stroke-width: 1.5;" width="10" x="33.5" y="198.2969"/><text fill="#000000" font-size="14" lengthAdjust="spacingAndGlyphs" textLength="176" x="48.5" y="196">Simulated Measurements</text><path d="M144.34,78 C154.37,78 164.4,78 174.43,78 " fill="none" style="stroke: #A80036; stroke-width: 1.0;"/><polygon fill="#A80036" points="179.675,78,170.675,74,174.675,78,170.675,82,179.675,78" style="stroke: #A80036; stroke-width: 1.0;"/><path d="M262.508,78 C272.458,78 282.408,78 292.358,78 " fill="none" style="stroke: #A80036; stroke-width: 1.0;"/><polygon fill="#A80036" points="297.562,78,288.562,74,292.562,78,288.562,82,297.562,78" style="stroke: #A80036; stroke-width: 1.0;"/><path d="M357.594,96.188 C356.035,115.238 353.517,146.0203 351.811,166.8619 " fill="none" style="stroke: #A80036; stroke-width: 1.0;"/><polygon fill="#A80036" points="351.396,171.9332,356.1169,163.2895,351.8039,166.9499,348.1435,162.6369,351.396,171.9332" style="stroke: #A80036; stroke-width: 1.0;"/><path d="M268.754,190 C258.834,190 248.913,190 238.992,190 " fill="none" style="stroke: #A80036; stroke-width: 1.0;"/><polygon fill="#A80036" points="233.805,190,242.805,194,238.805,190,242.805,186,233.805,190" style="stroke: #A80036; stroke-width: 1.0;"/><path d="M129.794,171.9332 C122.855,152.8516 111.597,121.893 104.002,101.006 " fill="none" style="stroke: #A80036; stroke-width: 1.0;"/><polygon fill="#A80036" points="102.25,96.188,101.5689,106.0133,103.9598,100.8866,109.0866,103.2775,102.25,96.188" style="stroke: #A80036; stroke-width: 1.0;"/></g></svg>