<?xml version="1.0" encoding="UTF-8" standalone="yes"?><svg xmlns="http://www.w3.org/2000/svg" xmlns:xlink="http://www.w3.org/1999/xlink" height="783pt" style="width:289px;height:783px;" version="1.1" viewBox="0 0 289 783" width="289pt"><defs><filter height="300%" id="f1" width="300%" x="-1" y="-1"><feGaussianBlur result="blurOut" stdDeviation="2"/><feColorMatrix in="blurOut" result="blurOut2" type="matrix" values="0 0 0 0 0 0 0 0 0 0 0 0 0 0 0 0 0 0 .4 0"/><feOffset dx="4" dy="4" in="blurOut2" result="blurOut3"/><feBlend in="SourceGraphic" in2="blurOut3" mode="normal"/></filter></defs><g><rect fill="#FEFECE" filter="url(#f1)" height="328" rx="12.5" ry="12.5" style="stroke: #A80036; stroke-width: 1.5;" width="208" x="30" y="84"/><rect fill="#FFFFFF" height="295.7031" rx="12.5" ry="12.5" style="stroke: #FFFFFF; stroke-width: 1.0;" width="202" x="33" y="113.2969"/><line style="stroke: #A80036; stroke-width: 1.5;" x1="30" x2="238" y1="110.2969" y2="110.2969"/><text fill="#000000" font-size="14" lengthAdjust="spacingAndGlyphs" textLength="54" x="106.5" y="102">Initialize</text><ellipse cx="127" cy="138" fill="#000000" filter="url(#f1)" rx="10" ry="10" style="stroke: none; stroke-width: 1.0;"/><rect fill="#FEFECE" filter="url(#f1)" height="50" rx="12.5" ry="12.5" style="stroke: #A80036; stroke-width: 1.5;" width="130" x="62" y="210"/><line style="stroke: #A80036; stroke-width: 1.5;" x1="62" x2="192" y1="236.2969" y2="236.2969"/><text fill="#000000" font-size="14" lengthAdjust="spacingAndGlyphs" textLength="110" x="72" y="229">PerformSelfTest</text><rect fill="#FEFECE" filter="url(#f1)" height="50" rx="12.5" ry="12.5" style="stroke: #A80036; stroke-width: 1.5;" width="152" x="62" y="338"/><line style="stroke: #A80036; stroke-width: 1.5;" x1="62" x2="214" y1="364.2969" y2="364.2969"/><text fill="#000000" font-size="14" lengthAdjust="spacingAndGlyphs" textLength="132" x="72" y="357">SampleSensorData</text><ellipse cx="38" cy="18" fill="#000000" filter="url(#f1)" rx="10" ry="10" style="stroke: none; stroke-width: 1.0;"/><rect fill="#FEFECE" filter="url(#f1)" height="50" rx="12.5" ry="12.5" style="stroke: #A80036; stroke-width: 1.5;" width="115" x="80.75" y="596"/><line style="stroke: #A80036; stroke-width: 1.5;" x1="80.75" x2="195.75" y1="622.2969" y2="622.2969"/><text fill="#000000" font-size="14" lengthAdjust="spacingAndGlyphs" textLength="95" x="90.75" y="615">UnlockEngine</text><rect fill="#FEFECE" filter="url(#f1)" height="50" rx="12.5" ry="12.5" style="stroke: #A80036; stroke-width: 1.5;" width="50" x="113" y="468"/><line style="stroke: #A80036; stroke-width: 1.5;" x1="113" x2="163" y1="494.2969" y2="494.2969"/><text fill="#000000" font-size="14" lengthAdjust="spacingAndGlyphs" textLength="24" x="126" y="487">Idle</text><rect fill="#FEFECE" filter="url(#f1)" height="50" rx="12.5" ry="12.5" style="stroke: #A80036; stroke-width: 1.5;" width="59" x="108.75" y="724"/><line style="stroke: #A80036; stroke-width: 1.5;" x1="108.75" x2="167.75" y1="750.2969" y2="750.2969"/><text fill="#000000" font-size="14" lengthAdjust="spacingAndGlyphs" textLength="39" x="118.75" y="743">Flying</text><path d="M38,28.259 C38,39.53 38,59.518 38,79.309 " fill="none" style="stroke: #A80036; stroke-width: 1.0;"/><polygon fill="#A80036" points="38,84.332,42,75.332,38,79.332,34,75.332,38,84.332" style="stroke: #A80036; stroke-width: 1.0;"/><path d="M127,148.109 C127,161.014 127,185.21 127,204.641 " fill="none" style="stroke: #A80036; stroke-width: 1.0;"/><polygon fill="#A80036" points="127,209.981,131,200.981,127,204.981,123,200.981,127,209.981" style="stroke: #A80036; stroke-width: 1.0;"/><path d="M129.121,260.294 C130.924,280.95 133.519,310.669 135.438,332.651 " fill="none" style="stroke: #A80036; stroke-width: 1.0;"/><polygon fill="#A80036" points="135.886,337.781,139.0866,328.4667,135.4503,332.8,131.117,329.1638,135.886,337.781" style="stroke: #A80036; stroke-width: 1.0;"/><text fill="#000000" font-size="13" lengthAdjust="spacingAndGlyphs" textLength="95" x="135" y="304">EvTestsPassed</text><path d="M138,388.076 C138,409.128 138,439.775 138,462.336 " fill="none" style="stroke: #A80036; stroke-width: 1.0;"/><polygon fill="#A80036" points="138,467.597,142,458.597,138,462.597,134,458.597,138,467.597" style="stroke: #A80036; stroke-width: 1.0;"/><path d="M138,518.294 C138,538.95 138,568.669 138,590.651 " fill="none" style="stroke: #A80036; stroke-width: 1.0;"/><polygon fill="#A80036" points="138,595.781,142,586.781,138,590.781,134,586.781,138,595.781" style="stroke: #A80036; stroke-width: 1.0;"/><text fill="#000000" font-size="13" lengthAdjust="spacingAndGlyphs" textLength="149" x="139" y="562">EvGroundLockReleased</text><path d="M138,646.294 C138,666.95 138,696.669 138,718.6514 " fill="none" style="stroke: #A80036; stroke-width: 1.0;"/><polygon fill="#A80036" points="138,723.7805,142,714.7805,138,718.7805,134,714.7805,138,723.7805" style="stroke: #A80036; stroke-width: 1.0;"/><text fill="#000000" font-size="13" lengthAdjust="spacingAndGlyphs" textLength="117" x="139" y="690">EvEngineUnlocked</text></g></svg>